<svg xmlns="http://www.w3.org/2000/svg" id="Layer_1" data-name="Layer 1" viewBox="0 0 1000 1392.32"><defs><style>.cls-1,.cls-3{stroke-width:0}.cls-3{fill:#fff}</style></defs><path d="M968.11 92.66v718.29c-66.15 29.79-139.53 46.47-216.75 46.39-292.95 0-530.37-237.42-530.37-530.37 0-109.19 33.04-210.67 89.72-295.08h596.64c33.56 0 60.76 27.21 60.76 60.77Z" class="cls-1"/><path d="M723.71 912.73c87.59-.07 170.59-20.24 244.4-56.31v443.24c0 33.56-27.2 60.77-60.76 60.77H92.65c-33.56 0-60.76-27.21-60.76-60.77v-1207c0-33.56 27.2-60.77 60.76-60.77h176.01c-64.72 91.16-102.99 202.48-102.99 322.74 0 308.26 249.77 558.03 558.04 558.1Z" class="cls-1"/><path d="M968.11 856.42v443.24c0 33.56-27.2 60.77-60.76 60.77H92.65c-33.56 0-60.76-27.21-60.76-60.77v-1207c0-33.56 27.2-60.77 60.76-60.77h176.01c-64.72 91.16-102.99 202.48-102.99 322.74 0 308.26 249.77 558.03 558.04 558.1 87.59-.07 170.59-20.24 244.4-56.31Z" class="cls-1"/><path d="M968.11 92.66v718.29c-66.15 29.79-139.53 46.47-216.75 46.39-292.95 0-530.37-237.42-530.37-530.37 0-109.19 33.04-210.67 89.72-295.08h596.64c33.56 0 60.76 27.21 60.76 60.77Z" style="fill:#dc2e39;stroke-width:0"/><path d="M907.35 0H92.65C41.56 0 0 41.57 0 92.66v1207c0 51.09 41.56 92.66 92.65 92.66h814.7c51.09 0 92.65-41.57 92.65-92.66v-1207C1000 41.57 958.44 0 907.35 0Zm60.76 1299.66c0 33.56-27.2 60.77-60.76 60.77H92.65c-33.56 0-60.76-27.21-60.76-60.77v-1207c0-33.56 27.2-60.77 60.76-60.77h176.01c-64.72 91.16-102.99 202.48-102.99 322.74 0 308.26 249.77 558.03 558.04 558.1 87.59-.07 170.59-20.24 244.4-56.31v443.24Zm0-488.71c-66.15 29.79-139.53 46.47-216.75 46.39-292.95 0-530.37-237.42-530.37-530.37 0-109.19 33.04-210.67 89.72-295.08h596.64c33.56 0 60.76 27.21 60.76 60.77v718.29Z" class="cls-3"/><path d="M220.66 999.98v267.04h-55.04V999.98h55.04ZM394.24 1044.82v222.2H339.2v-222.2h-63.51v-44.84h182.05v44.84h-63.51ZM567.83 999.98v267.04h-55.04V999.98h55.04ZM841.32 1253.09c-16.93 8.4-39.37 15.62-69.85 15.62-49.54 0-79.6-16.01-103.31-37.24-32.6-29.62-45.3-62.85-45.3-102.08 0-48.45 21.17-83.27 45.3-104.49 28.36-25.23 63.51-35.23 103.73-35.23 19.9 0 43.61 3.2 69.43 16.41v60.85c-25.82-28.03-58-30.03-68.16-30.03-56.73 0-93.56 44.03-93.56 93.28 0 59.25 48.26 91.28 95.68 91.28 26.25 0 49.54-10.8 66.04-29.22v60.85Z" class="cls-3"/></svg>